<?xml version="1.0" encoding="UTF-8"?>
<svg width="40px" height="46px" viewBox="0 0 40 46" version="1.1" xmlns="http://www.w3.org/2000/svg" xmlns:xlink="http://www.w3.org/1999/xlink">
    <title>loading-ico</title>
    <g id="Loading" stroke="none" stroke-width="1" fill="none" fill-rule="evenodd">
        <g id="loading-ico" fill="#BECBD1">
            <g id="animated-head">
                <animateTransform
                    attributeName="transform"
                    type="translate"
                    values="-0.35 0; 0.35 0; -0.35 0; -0.35 0"
                    keyTimes="0; 0.33; 0.66; 1"
                    dur="1.2s"
                    repeatCount="indefinite" />
                <path d="M19.9952057,9.85714286 C37.1428571,9.85714286 40,20.1994778 40,26.2857143 L39.9881104,26.9658491 L39.9321032,27.9081917 C39.5127534,32.893314 36.9775536,39.5526082 27.6218201,41.8740489 C25.7650219,44.3953152 22.9793663,46 19.8644555,46 C16.7158141,46 13.9035974,44.3603736 12.0507993,41.7902808 C2.14475269,39.1794609 0.0892336534,31.6192701 0.00290372577,26.621824 L0,26.2857143 C0,20.1994778 2.84755412,9.85714286 19.9952057,9.85714286 Z M28.5714288,19.7142857 L11.4285716,19.7142857 C8.27265878,19.7142857 5.71428592,22.6564145 5.71428592,26.2857143 C5.71428592,29.9150141 8.27265878,32.8571429 11.4285716,32.8571429 L28.5714288,32.8571429 C31.7273416,32.8571429 34.2857145,29.9150141 34.2857145,26.2857143 C34.2857145,22.6564145 31.7273416,19.7142857 28.5714288,19.7142857 Z M8.33333333,0 C11.0947571,0 13.3333333,2.20659659 13.3333333,4.92857143 C13.3333333,7.65054627 11.0947571,9.85714286 8.33333333,9.85714286 C5.57190958,9.85714286 3.33333333,7.65054627 3.33333333,4.92857143 C3.33333333,2.20659659 5.57190958,0 8.33333333,0 Z M31.6666667,0 C34.4280904,0 36.6666667,2.20659659 36.6666667,4.92857143 C36.6666667,7.65054627 34.4280904,9.85714286 31.6666667,9.85714286 C28.9052429,9.85714286 26.6666667,7.65054627 26.6666667,4.92857143 C26.6666667,2.20659659 28.9052429,0 31.6666667,0 Z"></path>
            </g>

            <g id="animated-eyes">
                <animateTransform
                    attributeName="transform"
                    type="translate"
                    values="-1.1 0; 1.1 0; -1.1 0; -1.1 0"
                    keyTimes="0; 0.33; 0.66; 1"
                    dur="1.2s"
                    repeatCount="indefinite" />
                <circle cx="14.3333333" cy="26.2857143" r="3.2857143"></circle>
                <circle cx="25.6666667" cy="26.2857143" r="3.2857143"></circle>
            </g>
        </g>
    </g>
</svg>
